<svg width="24" height="24" viewBox="0 0 24 24" fill="none" xmlns="http://www.w3.org/2000/svg">
<path d="M12.7101 13.4001C12.6171 13.4938 12.5065 13.5682 12.3846 13.619C12.2628 13.6698 12.1321 13.6959 12.0001 13.6959C11.8681 13.6959 11.7374 13.6698 11.6155 13.619C11.4936 13.5682 11.383 13.4938 11.2901 13.4001L6.71006 8.81011C6.6171 8.71638 6.5065 8.64199 6.38464 8.59122C6.26278 8.54045 6.13207 8.51431 6.00006 8.51431C5.86805 8.51431 5.73734 8.54045 5.61548 8.59122C5.49362 8.64199 5.38302 8.71638 5.29006 8.81011C5.10381 8.99747 4.99927 9.25092 4.99927 9.51511C4.99927 9.7793 5.10381 10.0327 5.29006 10.2201L9.88007 14.8101C10.4426 15.3719 11.2051 15.6875 12.0001 15.6875C12.7951 15.6875 13.5576 15.3719 14.1201 14.8101L18.7101 10.2201C18.8948 10.0338 18.999 9.78245 19.0001 9.52011C19.0008 9.3885 18.9756 9.25804 18.9259 9.1362C18.8761 9.01436 18.8028 8.90355 18.7101 8.81011C18.6171 8.71638 18.5065 8.64199 18.3847 8.59122C18.2628 8.54045 18.1321 8.51431 18.0001 8.51431C17.8681 8.51431 17.7374 8.54045 17.6155 8.59122C17.4936 8.64199 17.383 8.71638 17.2901 8.81011L12.7101 13.4001Z" fill="#4DC274"/>
</svg>
